
[img]http://www.pix2links.com/image/kqPNT.jpg[/img]


Crazy, Stupid, Love.(2011) PG-13 

 When Cal Weaver (Steve Carell) discovers that his wife (Julianne Moore) wants to end their marriage, he reluctantly faces the unwelcome prospect of single life with the counsel of the younger and smoother super-bachelor Jacob Palmer (Ryan Gosling). Meanwhile, Cal's adolescent son, Robbie (Jonah Bobo), has formed an unquenchable crush on his 17-year-old babysitter (Analeigh Tipton) -- but is she more interested in Robbie's recently unwed father?

Genre:
   Comedies, Romantic Movies, Romantic Comedies

This movie is:
   Goofy, Romantic, Witty   


General
Format                           : AVI
Format/Info                      : Audio Video Interleave
File size                        : 1.40 GiB
Duration                         : 2h 10mn
Overall bit rate                 : 1 532 Kbps

Video
ID                               : 0
Format                           : MPEG-4 Visual
Format profile                   : Advanced Simple@L5
Format settings, BVOP            : 2
Format settings, QPel            : Yes
Format settings, GMC             : No warppoints
Format settings, Matrix          : Default (H.263)
Codec ID                         : XVID
Codec ID/Hint                    : XviD
Duration                         : 2h 10mn
Bit rate                         : 1 119 Kbps
Width                            : 720 pixels
Height                           : 304 pixels
Display aspect ratio             : 2.35:1
Frame rate                       : 23.976 fps
Color space                      : YUV
Chroma subsampling               : 4:2:0
Bit depth                        : 8 bits
Scan type                        : Progressive
Compression mode                 : Lossy
Bits/(Pixel*Frame)               : 0.213
Stream size                      : 1.02 GiB (73%)
Writing library                  : XviD 1.2.1 (UTC 2008-12-04)

Audio
ID                               : 1
Format                           : AC-3
Format/Info                      : Audio Coding 3
Mode extension                   : CM (complete main)
Codec ID                         : 2000
Duration                         : 1h 58mn
Bit rate mode                    : Constant
Bit rate                         : 448 Kbps
Channel(s)                       : 6 channels
Channel positions                : Front: L C R, Side: L R, LFE
Sampling rate                    : 48.0 KHz
Bit depth                        : 16 bits
Compression mode                 : Lossy
Stream size                      : 379 MiB (26%)
Alignment                        : Aligned on interleaves
Interleave, duration             : 71 ms (1.70 video frames)
Interleave, preload duration     : 192 ms
Title                            : VTS_01_1 T80 3_2ch 384Kbps DELAY 0ms_new


[img]http://www.pix2links.com/image/IEabh.png[/img]

[img]http://www.pix2links.com/image/2mwE1.png[/img]

[img]http://www.pix2links.com/image/LulSH.png[/img]

[img]http://www.pix2links.com/image/jBg5z.png[/img]